<?xml version="1.0" encoding="UTF-8"?>
<svg version="1.1" xmlns="http://www.w3.org/2000/svg" width="330" height="86">
<path d="M0 0 C0.495 6.435 0.495 6.435 1 13 C1.89203125 12.22914062 2.7840625 11.45828125 3.703125 10.6640625 C4.88523286 9.65082719 6.06753475 8.6378182 7.25 7.625 C7.83652344 7.11710937 8.42304687 6.60921875 9.02734375 6.0859375 C9.88779297 5.35117187 9.88779297 5.35117187 10.765625 4.6015625 C11.28930664 4.15119629 11.81298828 3.70083008 12.35253906 3.23681641 C18.28165341 -1.21441259 20.52276963 0 29 0 C29 9.57 29 19.14 29 29 C25.04 29 21.08 29 17 29 C17 23.72 17 18.44 17 13 C14.525 15.0109375 14.525 15.0109375 12 17.0625 C10.989375 17.8771875 9.97875 18.691875 8.9375 19.53125 C6.46525989 21.60898371 4.25953905 23.76530197 2 26.0625 C-1.28144725 29.02947522 -3.60121486 29.42627861 -8 29.4375 C-9.65 29.293125 -11.3 29.14875 -13 29 C-13.495 21.575 -13.495 21.575 -14 14 C-15.65 15.36125 -17.3 16.7225 -19 18.125 C-20.01449219 18.94097656 -21.02898438 19.75695312 -22.07421875 20.59765625 C-23.76856063 21.98887155 -25.43599973 23.41744655 -27.01953125 24.93359375 C-32.33277434 29.76065773 -37.2180563 29.51979163 -44.21875 29.2109375 C-45.1365625 29.14132813 -46.054375 29.07171875 -47 29 C-45.45690575 24.90057491 -42.84740354 23.11725843 -39.375 20.5625 C-33.22610523 15.98183286 -27.2780406 11.19315083 -21.38232422 6.29125977 C-20.73924316 5.76201904 -20.09616211 5.23277832 -19.43359375 4.6875 C-18.58365845 3.98173828 -18.58365845 3.98173828 -17.71655273 3.26171875 C-12.00044503 -0.93979521 -6.93234151 -0.15070308 0 0 Z " fill="#FEFEFE" transform="translate(47,22)"/>
<path d="M0 0 C1.13308594 -0.00821777 1.13308594 -0.00821777 2.2890625 -0.01660156 C14.76571272 0.14071272 14.76571272 0.14071272 18.9375 4.3125 C19.30859375 6.37109375 19.30859375 6.37109375 19.375 8.75 C19.43494141 9.92369141 19.43494141 9.92369141 19.49609375 11.12109375 C18.9375 13.3125 18.9375 13.3125 17.0859375 15.0546875 C12.4761398 16.89631884 8.04595755 16.88341824 3.125 17 C-0.236875 17.103125 -3.59875 17.20625 -7.0625 17.3125 C1.1875 17.6425 9.4375 17.9725 17.9375 18.3125 C17.9375 20.6225 17.9375 22.9325 17.9375 25.3125 C15.27003493 27.97996507 7.40196831 26.49814594 3.8125 26.5 C1.97558594 26.51836914 1.97558594 26.51836914 0.1015625 26.53710938 C-14.55348995 26.56090004 -14.55348995 26.56090004 -18.98046875 22.59375 C-20.42397023 19.55041113 -20.42506563 17.17074867 -20.375 13.8125 C-20.37113281 12.6884375 -20.36726562 11.564375 -20.36328125 10.40625 C-20.07343422 7.42496625 -19.7735443 5.74251731 -18.0625 3.3125 C-12.09599848 0.32924924 -6.55427735 0.03486318 0 0 Z M-7.0625 8.3125 C-7.3925 9.3025 -7.7225 10.2925 -8.0625 11.3125 C-3.1125 11.3125 1.8375 11.3125 6.9375 11.3125 C6.9375 10.3225 6.9375 9.3325 6.9375 8.3125 C2.3175 8.3125 -2.3025 8.3125 -7.0625 8.3125 Z " fill="#FFFFFF" transform="translate(232.0625,24.6875)"/>
<path d="M0 0 C4.16660676 -0.05851976 8.33310637 -0.0937706 12.5 -0.125 C14.25957031 -0.15013672 14.25957031 -0.15013672 16.0546875 -0.17578125 C31.36731902 -0.26180727 31.36731902 -0.26180727 35.96875 3.69140625 C38.24457289 8.78614613 37.68639528 14.57298688 37 20 C34.82767832 23.28951569 33.66512679 24.52779987 29.90625 25.59375 C25.82622062 26.16407669 21.80247925 26.18429768 17.6875 26.1875 C16.87087891 26.19974609 16.05425781 26.21199219 15.21289062 26.22460938 C9.80658365 26.23753282 5.16652834 25.63425147 0 24 C-2 22 -2 22 -2.3125 18.0625 C-2.24851175 15.34546052 -2.22360629 14.31508159 -0.625 12.0625 C2.32014358 10.13682919 4.29457702 9.83095157 7.7890625 9.68359375 C8.63678223 9.64548584 9.48450195 9.60737793 10.35791016 9.56811523 C11.4360498 9.52501221 12.51418945 9.48190918 13.625 9.4375 C18.760625 9.2209375 18.760625 9.2209375 24 9 C16.08 8.67 8.16 8.34 0 8 C0 5.36 0 2.72 0 0 Z M11 15 C10.67 15.99 10.34 16.98 10 18 C14.95 18 19.9 18 25 18 C25 17.01 25 16.02 25 15 C20.38 15 15.76 15 11 15 Z " fill="#FFFFFF" transform="translate(148,25)"/>
<path d="M0 0 C1 1 1 1 1.3125 3.6875 C0.65608462 10.64550308 -4.92607264 15.61909686 -10 20 C-12.54813659 22.0068634 -15.13971029 23.94987633 -17.75 25.875 C-18.41233643 26.36379639 -19.07467285 26.85259277 -19.75708008 27.35620117 C-22.54868007 29.37684546 -24.69875835 30.89958612 -28 32 C-26.14876033 27.23966942 -26.14876033 27.23966942 -24.875 25.1875 C-23.51634746 21.79086864 -23.87870013 18.63899603 -24 15 C-34.90625933 11.49643483 -48.28885514 14.14822134 -59 17 C-55.74873713 13.30426069 -52.05084073 11.19650362 -47.6875 9.0625 C-46.98544434 8.71622559 -46.28338867 8.36995117 -45.56005859 8.01318359 C-33.21201076 2.07827007 -13.3201691 -7.07633984 0 0 Z " fill="#FA8006" transform="translate(328,3)"/>
<path d="M0 0 C4.125 -0.04125 8.25 -0.0825 12.5 -0.125 C13.78455078 -0.14320801 15.06910156 -0.16141602 16.39257812 -0.18017578 C31.21928474 -0.25167981 31.21928474 -0.25167981 36.484375 4.01171875 C38.66523076 8.31160189 38.43396433 12.06834302 38.25 16.8125 C38.23195313 17.69615234 38.21390625 18.57980469 38.1953125 19.49023438 C38.14838513 21.66062543 38.07664731 23.83045519 38 26 C36.02090602 26.02686553 34.04171029 26.04633375 32.0625 26.0625 C30.96035156 26.07410156 29.85820312 26.08570312 28.72265625 26.09765625 C26 26 26 26 25 25 C24.76321284 22.30764224 24.57801975 19.63501844 24.4375 16.9375 C24.39431641 16.17888672 24.35113281 15.42027344 24.30664062 14.63867188 C24.20026367 12.75934562 24.09960066 10.87969756 24 9 C20.04 8.67 16.08 8.34 12 8 C12 13.94 12 19.88 12 26 C8.04 26 4.08 26 0 26 C0 17.42 0 8.84 0 0 Z " fill="#FFFFFF" transform="translate(254,25)"/>
<path d="M0 0 C1.10021484 0.00064453 2.20042969 0.00128906 3.33398438 0.00195312 C11.42191382 0.04691382 11.42191382 0.04691382 12.5625 1.1875 C12.60342937 3.52047433 12.60491723 5.85455225 12.5625 8.1875 C11.87099854 8.21255615 11.17949707 8.2376123 10.46704102 8.26342773 C7.35282134 8.37902161 4.23893211 8.50191242 1.125 8.625 C-0.50791992 8.68397461 -0.50791992 8.68397461 -2.17382812 8.74414062 C-3.72553711 8.80698242 -3.72553711 8.80698242 -5.30859375 8.87109375 C-6.26693115 8.90775146 -7.22526855 8.94440918 -8.21264648 8.98217773 C-10.40888925 8.94584424 -10.40888925 8.94584424 -11.4375 10.1875 C-11.60416667 13.1875 -11.60416667 13.1875 -11.4375 16.1875 C-9.75449331 17.87050669 -7.61741273 17.41559077 -5.30859375 17.50390625 C-4.27412109 17.54580078 -3.23964844 17.58769531 -2.17382812 17.63085938 C-1.08521484 17.67017578 0.00339844 17.70949219 1.125 17.75 C2.21748047 17.79318359 3.30996094 17.83636719 4.43554688 17.88085938 C7.14439564 17.98732068 9.85333992 18.08933516 12.5625 18.1875 C12.5625 20.8275 12.5625 23.4675 12.5625 26.1875 C8.56256253 26.24605764 4.56273692 26.28128299 0.5625 26.3125 C-0.56285156 26.32925781 -1.68820313 26.34601562 -2.84765625 26.36328125 C-17.19909788 26.44720781 -17.19909788 26.44720781 -22.90625 22.46484375 C-24.94395342 19.43427973 -24.97108329 17.38119319 -24.9375 13.75 C-24.95296875 12.08130859 -24.95296875 12.08130859 -24.96875 10.37890625 C-24.30900575 6.41558971 -23.42929412 4.87159378 -20.4375 2.1875 C-13.75742957 -0.31470861 -7.06257303 -0.08059393 0 0 Z " fill="#FFFFFF" transform="translate(103.4375,24.8125)"/>
<path d="M0 0 C4.29 0 8.58 0 13 0 C13 6.93 13 13.86 13 21 C17.29 21 21.58 21 26 21 C26 23.64 26 26.28 26 29 C21.85418113 29.02886751 17.70838784 29.04675327 13.5625 29.0625 C11.78649414 29.07506836 11.78649414 29.07506836 9.97460938 29.08789062 C8.84990234 29.09111328 7.72519531 29.09433594 6.56640625 29.09765625 C5.00321655 29.10551147 5.00321655 29.10551147 3.40844727 29.11352539 C1 29 1 29 0 28 C-0.08767112 25.92737924 -0.10695873 23.85179706 -0.09765625 21.77734375 C-0.09443359 20.51728516 -0.09121094 19.25722656 -0.08789062 17.95898438 C-0.07953403 16.61848891 -0.07106907 15.27799412 -0.0625 13.9375 C-0.0574866 12.59310058 -0.05292342 11.2486994 -0.04882812 9.90429688 C-0.03699497 6.60284567 -0.01905886 3.3014174 0 0 Z " fill="#FFFFFF" transform="translate(118,22)"/>
<path d="M0 0 C0.69287109 0.00451172 1.38574219 0.00902344 2.09960938 0.01367188 C3.79561068 0.02536844 5.49156703 0.04330076 7.1875 0.0625 C7.1875 2.7025 7.1875 5.3425 7.1875 8.0625 C3.5575 8.0625 -0.0725 8.0625 -3.8125 8.0625 C-3.8125 14.0025 -3.8125 19.9425 -3.8125 26.0625 C-7.7725 26.0625 -11.7325 26.0625 -15.8125 26.0625 C-15.89326726 22.45788705 -15.95288951 18.85507437 -16 15.25 C-16.02513672 14.22583984 -16.05027344 13.20167969 -16.07617188 12.14648438 C-16.08583984 11.16357422 -16.09550781 10.18066406 -16.10546875 9.16796875 C-16.1211792 8.26199951 -16.13688965 7.35603027 -16.15307617 6.42260742 C-15.74590672 3.60102525 -15.05808657 2.75955668 -12.8125 1.0625 C-8.62678962 -0.23856451 -4.34287303 -0.05402617 0 0 Z " fill="#FFFFFF" transform="translate(203.8125,24.9375)"/>
<path d="M0 0 C1.32 0 2.64 0 4 0 C4.66 1.98 5.32 3.96 6 6 C6.99 4.02 7.98 2.04 9 0 C10.32 0 11.64 0 13 0 C13 3.96 13 7.92 13 12 C12.01 12 11.02 12 10 12 C9.67 11.34 9.34 10.68 9 10 C8.67 10.66 8.34 11.32 8 12 C5.36 12 2.72 12 0 12 C0 8.04 0 4.08 0 0 Z " fill="#FFFFFF" transform="translate(114,74)"/>
<path d="M0 0 C1.32 0 2.64 0 4 0 C4.66 1.65 5.32 3.3 6 5 C7.93798263 2.22739701 7.93798263 2.22739701 9 0 C10.32 0 11.64 0 13 0 C13 3.96 13 7.92 13 12 C12.01 12 11.02 12 10 12 C9.67 11.34 9.34 10.68 9 10 C8.67 10.66 8.34 11.32 8 12 C5.36 12 2.72 12 0 12 C0 8.04 0 4.08 0 0 Z " fill="#FFFFFF" transform="translate(278,74)"/>
<path d="M0 0 C1.89885096 1.89885096 1.12367506 4.57247903 1.1328125 7.08984375 C1 9 1 9 0 11 C-6.0546875 11.1953125 -6.0546875 11.1953125 -8 11 C-10 9 -10 9 -10.3125 5.5625 C-10 2 -10 2 -8.9375 0 C-5.83813522 -1.59967215 -3.30041286 -0.73342508 0 0 Z M-6 2 C-7.00217064 5.58327753 -7.00217064 5.58327753 -6 9 C-4.68 8.67 -3.36 8.34 -2 8 C-2 6.35 -2 4.7 -2 3 C-3.32 2.67 -4.64 2.34 -6 2 Z " fill="#FFFFFF" transform="translate(86,75)"/>
<path d="M0 0 C6 0 6 0 7.9375 1.1875 C9.42697354 3.72836663 8.61750554 5.1869192 8 8 C8.84077872 10.26857146 8.84077872 10.26857146 10 12 C7.5625 11.625 7.5625 11.625 5 11 C4.67 10.34 4.34 9.68 4 9 C3.67 9.99 3.34 10.98 3 12 C2.01 12 1.02 12 0 12 C0 8.04 0 4.08 0 0 Z M3 3 C3 3.66 3 4.32 3 5 C3.66 5 4.32 5 5 5 C5 4.34 5 3.68 5 3 C4.34 3 3.68 3 3 3 Z " fill="#FFFFFF" transform="translate(96,74)"/>
<path d="M0 0 C1.65 0.33 3.3 0.66 5 1 C5.99 4.63 6.98 8.26 8 12 C6.68 12 5.36 12 4 12 C4 11.34 4 10.68 4 10 C2.68 10 1.36 10 0 10 C0 10.66 0 11.32 0 12 C-1.32 11.67 -2.64 11.34 -4 11 C-2.68 7.37 -1.36 3.74 0 0 Z M2 5 C3 7 3 7 3 7 Z " fill="#FFFFFF" transform="translate(262,74)"/>
<path d="M0 0 C1.32 0 2.64 0 4 0 C5.32 3.96 6.64 7.92 8 12 C6.68 12 5.36 12 4 12 C4 11.34 4 10.68 4 10 C2.68 10 1.36 10 0 10 C0 10.66 0 11.32 0 12 C-1.32 11.67 -2.64 11.34 -4 11 C-2.68 7.37 -1.36 3.74 0 0 Z " fill="#FEFEFE" transform="translate(174,74)"/>
<path d="M0 0 C0.99 0 1.98 0 3 0 C3.33 2.97 3.66 5.94 4 9 C4.66 9 5.32 9 6 9 C6.33 6.03 6.66 3.06 7 0 C7.99 0 8.98 0 10 0 C10.02698189 1.62490954 10.04638757 3.24994633 10.0625 4.875 C10.07410156 5.77992187 10.08570313 6.68484375 10.09765625 7.6171875 C10 10 10 10 9 12 C2.84765625 12.09765625 2.84765625 12.09765625 1 12 C0 11 0 11 -0.09765625 8.49609375 C-0.08605469 7.48675781 -0.07445312 6.47742188 -0.0625 5.4375 C-0.05347656 4.42558594 -0.04445312 3.41367188 -0.03515625 2.37109375 C-0.02355469 1.58863281 -0.01195312 0.80617188 0 0 Z " fill="#FEFEFE" transform="translate(136,74)"/>
<path d="M0 0 C2.64 0 5.28 0 8 0 C8 0.99 8 1.98 8 3 C6.68 3 5.36 3 4 3 C4 3.66 4 4.32 4 5 C4.99 5 5.98 5 7 5 C7 5.99 7 6.98 7 8 C6.01 8 5.02 8 4 8 C4 8.66 4 9.32 4 10 C5.32 10 6.64 10 8 10 C8 10.66 8 11.32 8 12 C5.36 12 2.72 12 0 12 C0 8.04 0 4.08 0 0 Z " fill="#FFFFFF" transform="translate(243,74)"/>
<path d="M0 0 C2.31 0 4.62 0 7 0 C7 0.99 7 1.98 7 3 C5.68 3 4.36 3 3 3 C3 3.66 3 4.32 3 5 C4.32 5 5.64 5 7 5 C7 5.99 7 6.98 7 8 C5.68 8 4.36 8 3 8 C3 9.32 3 10.64 3 12 C2.01 12 1.02 12 0 12 C0 8.04 0 4.08 0 0 Z " fill="#FEFEFE" transform="translate(61,74)"/>
<path d="M0 0 C2.97 0 5.94 0 9 0 C9 0.99 9 1.98 9 3 C8.01 3 7.02 3 6 3 C6 5.97 6 8.94 6 12 C5.01 12 4.02 12 3 12 C3 9.03 3 6.06 3 3 C2.01 3 1.02 3 0 3 C0 2.01 0 1.02 0 0 Z " fill="#FFFFFF" transform="translate(226,74)"/>
<path d="M0 0 C0.99 0 1.98 0 3 0 C3 3.3 3 6.6 3 10 C4.65 10 6.3 10 8 10 C8 10.66 8 11.32 8 12 C5.36 12 2.72 12 0 12 C0 8.04 0 4.08 0 0 Z " fill="#FFFFFF" transform="translate(155,74)"/>
<path d="M0 0 C0.99 0 1.98 0 3 0 C3 3.96 3 7.92 3 12 C2.01 12 1.02 12 0 12 C0 9.69 0 7.38 0 5 C-0.99 5 -1.98 5 -3 5 C-1.125 1.125 -1.125 1.125 0 0 Z " fill="#FFFFFF" transform="translate(203,74)"/>
</svg>
