<?xml version="1.0" encoding="UTF-8"?>
<svg version="1.1" xmlns="http://www.w3.org/2000/svg" width="136" height="136">
<path d="M0 0 C1.95509915 1.10875188 3.74522369 1.75141848 5.87890625 2.421875 C9.88327484 4.62035187 10.52881828 6.47607878 12.09375 10.62890625 C13.45015924 14.175181 15.24539803 17.45838574 17.015625 20.8125 C20.78083011 29.2667152 20.15080299 40.71234413 17.56640625 49.421875 C13.13138636 60.94362249 5.56867485 69.13043791 -5.546875 74.4140625 C-10.24164901 76.36606262 -15.01702454 77.88929173 -19.93359375 79.171875 C-18.61359375 79.501875 -17.29359375 79.831875 -15.93359375 80.171875 C-15.93359375 81.161875 -15.93359375 82.151875 -15.93359375 83.171875 C-16.92359375 83.171875 -17.91359375 83.171875 -18.93359375 83.171875 C-18.93359375 86.141875 -18.93359375 89.111875 -18.93359375 92.171875 C-19.92359375 92.171875 -20.91359375 92.171875 -21.93359375 92.171875 C-21.93359375 89.201875 -21.93359375 86.231875 -21.93359375 83.171875 C-22.92359375 83.171875 -23.91359375 83.171875 -24.93359375 83.171875 C-24.93359375 82.181875 -24.93359375 81.191875 -24.93359375 80.171875 C-26.02671875 79.759375 -27.11984375 79.346875 -28.24609375 78.921875 C-28.97570313 78.6434375 -29.7053125 78.365 -30.45703125 78.078125 C-32.15690591 77.45608885 -33.87202502 76.87465923 -35.59765625 76.328125 C-45.65529419 73.04168556 -53.94394394 66.99245382 -59.93359375 58.171875 C-65.71308641 46.6727808 -67.85950747 36.02933151 -64.24609375 23.484375 C-62.68812086 18.81045634 -60.8277902 14.84345911 -58.0078125 10.8125 C-56.764404 9.08548065 -56.764404 9.08548065 -56.12109375 6.421875 C-54.16487373 2.71535286 -50.6448332 1.81719116 -46.93359375 0.171875 C-45.26497534 -0.69939727 -43.59835327 -1.57450192 -41.93359375 -2.453125 C-27.92694845 -9.38183082 -13.31443354 -8.09822433 0 0 Z M-42.93359375 1.171875 C-42.93359375 1.501875 -42.93359375 1.831875 -42.93359375 2.171875 C-30.06359375 2.171875 -17.19359375 2.171875 -3.93359375 2.171875 C-15.81830491 -6.74165837 -30.03178613 -4.19021927 -42.93359375 1.171875 Z M-51.93359375 7.171875 C-54.00360772 15.25356425 -54.17424717 22.98762155 -54.05859375 31.296875 C-54.04957031 32.53953125 -54.04054688 33.7821875 -54.03125 35.0625 C-54.00789104 38.09916504 -53.97513658 41.13541353 -53.93359375 44.171875 C-53.60359375 44.171875 -53.27359375 44.171875 -52.93359375 44.171875 C-52.93359375 41.531875 -52.93359375 38.891875 -52.93359375 36.171875 C-48.31359375 36.171875 -43.69359375 36.171875 -38.93359375 36.171875 C-40.47734798 32.05891512 -40.47734798 32.05891512 -43.55859375 30.921875 C-44.34234375 30.674375 -45.12609375 30.426875 -45.93359375 30.171875 C-43.56908643 24.9699589 -41.49678797 21.33696328 -36.18359375 18.921875 C-35.44109375 18.674375 -34.69859375 18.426875 -33.93359375 18.171875 C-34.26359375 17.511875 -34.59359375 16.851875 -34.93359375 16.171875 C-35.59359375 16.171875 -36.25359375 16.171875 -36.93359375 16.171875 C-35.61359375 15.511875 -34.29359375 14.851875 -32.93359375 14.171875 C-32.93359375 15.161875 -32.93359375 16.151875 -32.93359375 17.171875 C-31.94359375 17.171875 -30.95359375 17.171875 -29.93359375 17.171875 C-29.60359375 18.821875 -29.27359375 20.471875 -28.93359375 22.171875 C-27.12947408 19.41263315 -26.92086925 18.28215397 -27.30859375 14.921875 C-27.51484375 14.014375 -27.72109375 13.106875 -27.93359375 12.171875 C-26.61359375 11.511875 -25.29359375 10.851875 -23.93359375 10.171875 C-24.59359375 9.841875 -25.25359375 9.511875 -25.93359375 9.171875 C-24.61359375 8.511875 -23.29359375 7.851875 -21.93359375 7.171875 C-21.43859375 8.656875 -21.43859375 8.656875 -20.93359375 10.171875 C-20.27359375 9.841875 -19.61359375 9.511875 -18.93359375 9.171875 C-18.43859375 11.646875 -18.43859375 11.646875 -17.93359375 14.171875 C-16.28359375 13.511875 -14.63359375 12.851875 -12.93359375 12.171875 C-12.93359375 14.481875 -12.93359375 16.791875 -12.93359375 19.171875 C-10.62359375 18.511875 -8.31359375 17.851875 -5.93359375 17.171875 C-6.21203125 18.5021875 -6.21203125 18.5021875 -6.49609375 19.859375 C-6.91401859 23.02366311 -6.74137117 25.12027142 -5.93359375 28.171875 C-6.92359375 28.831875 -7.91359375 29.491875 -8.93359375 30.171875 C-7.94359375 30.171875 -6.95359375 30.171875 -5.93359375 30.171875 C-6.59359375 32.151875 -7.25359375 34.131875 -7.93359375 36.171875 C-2.98359375 36.171875 1.96640625 36.171875 7.06640625 36.171875 C6.40640625 39.801875 5.74640625 43.431875 5.06640625 47.171875 C4.40640625 47.171875 3.74640625 47.171875 3.06640625 47.171875 C1.98895652 45.86728721 0.95358775 44.52772743 -0.05859375 43.171875 C-2.58558032 40.07838619 -2.58558032 40.07838619 -6.171875 38.640625 C-8.60758717 38.62944423 -8.60758717 38.62944423 -11.93359375 39.171875 C-11.57007813 39.6565625 -11.2065625 40.14125 -10.83203125 40.640625 C-9.77515014 42.04979981 -8.72341652 43.46284422 -7.67578125 44.87890625 C-6.53141694 46.3850539 -5.34945028 47.86349075 -4.12890625 49.30859375 C-2.55297393 51.21496349 -1.12641854 53.00436848 0.06640625 55.171875 C-0.37109375 58.046875 -0.37109375 58.046875 -1.93359375 60.171875 C-2.92359375 60.831875 -3.91359375 61.491875 -4.93359375 62.171875 C-5.34351563 61.594375 -5.7534375 61.016875 -6.17578125 60.421875 C-6.71460938 59.679375 -7.2534375 58.936875 -7.80859375 58.171875 C-8.34226563 57.429375 -8.8759375 56.686875 -9.42578125 55.921875 C-9.92335937 55.344375 -10.4209375 54.766875 -10.93359375 54.171875 C-11.59359375 54.171875 -12.25359375 54.171875 -12.93359375 54.171875 C-14.06412835 56.56594827 -14.93359375 58.50095133 -14.93359375 61.171875 C-13.33749275 64.36407699 -10.74940055 66.01508681 -7.93359375 68.171875 C1.09284725 61.25313088 6.38932494 53.47615427 8.06640625 42.171875 C8.326882 38.56193953 8.35167389 34.9774566 8.31640625 31.359375 C8.31060547 29.91667236 8.31060547 29.91667236 8.3046875 28.44482422 C8.22049765 21.5143622 7.66458203 14.93558323 6.06640625 8.171875 C-3.29731608 4.57044333 -13.23621303 4.98949405 -23.12109375 4.984375 C-24.95897461 4.96600586 -24.95897461 4.96600586 -26.83398438 4.94726562 C-35.40128643 4.93371691 -43.49187416 5.74073149 -51.93359375 7.171875 Z M-17.93359375 15.171875 C-17.65276575 17.15260865 -17.35862761 19.13145948 -17.05859375 21.109375 C-16.89617187 22.21152344 -16.73375 23.31367187 -16.56640625 24.44921875 C-16.35757813 25.34769531 -16.14875 26.24617188 -15.93359375 27.171875 C-15.27359375 27.501875 -14.61359375 27.831875 -13.93359375 28.171875 C-13.93359375 23.551875 -13.93359375 18.931875 -13.93359375 14.171875 C-15.30252614 14.11917037 -15.30252614 14.11917037 -17.93359375 15.171875 Z M-57.93359375 16.171875 C-56.93359375 18.171875 -56.93359375 18.171875 -56.93359375 18.171875 Z M-58.93359375 18.171875 C-63.69316567 28.9326463 -63.89883815 39.08756247 -59.93359375 50.171875 C-57.31858325 56.27048606 -54.31200441 60.29441615 -48.93359375 64.171875 C-49.80114463 61.85840599 -50.69127311 59.61083289 -51.88671875 57.4453125 C-58.44684795 45.5489588 -57.50322689 31.3925351 -57.93359375 18.171875 C-58.26359375 18.171875 -58.59359375 18.171875 -58.93359375 18.171875 Z M11.06640625 18.171875 C11.08960937 19.30882813 11.1128125 20.44578125 11.13671875 21.6171875 C11.33617707 35.29645569 11.21891384 47.5290446 4.30859375 59.74609375 C2.83850986 62.16269565 2.83850986 62.16269565 3.06640625 65.171875 C11.18831567 57.00315343 16.10993768 47.63264365 16.31640625 35.984375 C16.26645686 29.84060037 15.58049226 22.68596101 11.06640625 18.171875 Z M-38.93359375 22.171875 C-39.26359375 25.141875 -39.59359375 28.111875 -39.93359375 31.171875 C-38.94359375 30.841875 -37.95359375 30.511875 -36.93359375 30.171875 C-37.26359375 27.531875 -37.59359375 24.891875 -37.93359375 22.171875 C-38.26359375 22.171875 -38.59359375 22.171875 -38.93359375 22.171875 Z M-31.93359375 30.171875 C-31.93359375 30.831875 -31.93359375 31.491875 -31.93359375 32.171875 C-30.28359375 32.171875 -28.63359375 32.171875 -26.93359375 32.171875 C-27.26359375 31.511875 -27.59359375 30.851875 -27.93359375 30.171875 C-29.25359375 30.171875 -30.57359375 30.171875 -31.93359375 30.171875 Z M-21.93359375 30.171875 C-21.93359375 30.831875 -21.93359375 31.491875 -21.93359375 32.171875 C-20.61359375 32.171875 -19.29359375 32.171875 -17.93359375 32.171875 C-17.93359375 31.511875 -17.93359375 30.851875 -17.93359375 30.171875 C-19.25359375 30.171875 -20.57359375 30.171875 -21.93359375 30.171875 Z M-28.93359375 35.171875 C-24.93359375 36.171875 -24.93359375 36.171875 -24.93359375 36.171875 Z M-50.93359375 39.171875 C-48.28119125 44.01084587 -44.86230398 48.11538456 -41.37109375 52.359375 C-40.48647461 53.44508789 -40.48647461 53.44508789 -39.58398438 54.55273438 C-36.38531189 58.47551129 -36.38531189 58.47551129 -32.93359375 62.171875 C-33.09730469 61.59695312 -33.26101562 61.02203125 -33.4296875 60.4296875 C-33.92402592 58.2147448 -33.96689982 56.30731892 -33.99609375 54.046875 C-34.66110549 47.80199915 -38.20123139 43.14121496 -42.93359375 39.171875 C-46.03123274 38.32801734 -47.70444045 38.59524048 -50.93359375 39.171875 Z M-30.93359375 39.171875 C-28.8955724 43.23211821 -28.8955724 43.23211821 -24.93359375 45.171875 C-24.27359375 44.511875 -23.61359375 43.851875 -22.93359375 43.171875 C-21.61359375 44.491875 -20.29359375 45.811875 -18.93359375 47.171875 C-18.68991067 44.09551251 -18.68991067 44.09551251 -20.43359375 41.484375 C-23.18392311 38.94032034 -23.64668937 38.84683279 -27.18359375 38.859375 C-29.03984375 39.0140625 -29.03984375 39.0140625 -30.93359375 39.171875 Z M-52.93359375 45.171875 C-51.93359375 49.171875 -51.93359375 49.171875 -51.93359375 49.171875 Z M-51.93359375 50.171875 C-50.93359375 52.171875 -50.93359375 52.171875 -50.93359375 52.171875 Z M-50.93359375 52.171875 C-49.93359375 54.171875 -49.93359375 54.171875 -49.93359375 54.171875 Z M-49.93359375 54.171875 C-48.93359375 56.171875 -48.93359375 56.171875 -48.93359375 56.171875 Z M-31.93359375 55.171875 C-31.27359375 56.491875 -30.61359375 57.811875 -29.93359375 59.171875 C-30.26359375 57.851875 -30.59359375 56.531875 -30.93359375 55.171875 C-31.26359375 55.171875 -31.59359375 55.171875 -31.93359375 55.171875 Z M-29.93359375 60.171875 C-29.93359375 60.831875 -29.93359375 61.491875 -29.93359375 62.171875 C-28.94359375 61.841875 -27.95359375 61.511875 -26.93359375 61.171875 C-27.92359375 60.841875 -28.91359375 60.511875 -29.93359375 60.171875 Z M-26.93359375 62.171875 C-25.93359375 64.171875 -25.93359375 64.171875 -25.93359375 64.171875 Z M-18.93359375 64.171875 C-17.93359375 66.171875 -17.93359375 66.171875 -17.93359375 66.171875 Z M-28.93359375 68.171875 C-26.70490904 72.27774523 -26.70490904 72.27774523 -23.12109375 75.015625 C-20.06929427 75.23361068 -18.354659 74.17534441 -15.68359375 72.734375 C-14.7915625 72.26128906 -13.89953125 71.78820312 -12.98046875 71.30078125 C-12.305 70.92824219 -11.62953125 70.55570312 -10.93359375 70.171875 C-12.93600744 68.8858533 -12.93600744 68.8858533 -15.24609375 69.859375 C-17.93359375 70.171875 -17.93359375 70.171875 -20.62109375 68.234375 C-21.38421875 67.55375 -22.14734375 66.873125 -22.93359375 66.171875 C-25.39638176 66.171875 -26.78583494 67.02640363 -28.93359375 68.171875 Z " fill="#FFFFFF" transform="translate(91.93359375,32.828125)"/>
<path d="M0 0 C1.00144043 0.00829834 2.00288086 0.01659668 3.03466797 0.02514648 C22.88950017 0.47385228 38.01412349 8.57694079 51.75 22.4375 C52.34425781 22.99824219 52.93851562 23.55898438 53.55078125 24.13671875 C57.2439659 27.92945016 59.53847963 32.51832776 61.9375 37.1875 C62.27104492 37.83098389 62.60458984 38.47446777 62.94824219 39.13745117 C67.4826822 48.35816415 69.29823637 57.44918109 69.1875 67.6875 C69.17920166 68.68894043 69.17090332 69.69038086 69.16235352 70.72216797 C68.71693236 90.43165771 60.73235718 105.92057496 46.75 119.4375 C32.07551336 133.1846889 14.74805901 137.29992381 -4.828125 136.78125 C-23.31777185 135.87931601 -37.54809993 127.2546972 -50.25 114.4375 C-50.84425781 113.87675781 -51.43851563 113.31601563 -52.05078125 112.73828125 C-55.7439659 108.94554984 -58.03847963 104.35667224 -60.4375 99.6875 C-60.77104492 99.04401611 -61.10458984 98.40053223 -61.44824219 97.73754883 C-65.9826822 88.51683585 -67.79823637 79.42581891 -67.6875 69.1875 C-67.67920166 68.18605957 -67.67090332 67.18461914 -67.66235352 66.15283203 C-67.21364772 46.29799983 -59.11055921 31.17337651 -45.25 17.4375 C-44.68925781 16.84324219 -44.12851562 16.24898437 -43.55078125 15.63671875 C-39.75804984 11.9435341 -35.16917224 9.64902037 -30.5 7.25 C-29.85651611 6.91645508 -29.21303223 6.58291016 -28.55004883 6.23925781 C-19.32933585 1.7048178 -10.23831891 -0.11073637 0 0 Z M-5.25 3.4375 C-5.25 3.7675 -5.25 4.0975 -5.25 4.4375 C-1.29 4.4375 2.67 4.4375 6.75 4.4375 C6.75 4.1075 6.75 3.7775 6.75 3.4375 C2.79 3.4375 -1.17 3.4375 -5.25 3.4375 Z M-23.25 12.4375 C-24.17554688 12.83839844 -25.10109375 13.23929688 -26.0546875 13.65234375 C-40.85901998 20.88675552 -51.84335643 33.93503858 -57.25 49.4375 C-61.34115879 63.05500325 -61.03689342 79.41245461 -55.25 92.4375 C-54.84910156 93.36304687 -54.44820312 94.28859375 -54.03515625 95.2421875 C-46.3262334 111.01754847 -33.27720721 120.55509833 -17.09765625 126.4921875 C-4.05537332 130.8217245 12.22839124 130.00072172 24.75 124.4375 C25.67554687 124.03660156 26.60109375 123.63570313 27.5546875 123.22265625 C43.33004847 115.5137334 52.86759833 102.46470721 58.8046875 86.28515625 C63.1342245 73.24287332 62.31322172 56.95910876 56.75 44.4375 C56.34910156 43.51195312 55.94820313 42.58640625 55.53515625 41.6328125 C48.30074448 26.82848002 35.25246142 15.84414357 19.75 10.4375 C6.13249675 6.34634121 -10.22495461 6.65060658 -23.25 12.4375 Z M-59.25 42.4375 C-58.25 44.4375 -58.25 44.4375 -58.25 44.4375 Z M-62.25 51.4375 C-61.25 53.4375 -61.25 53.4375 -61.25 53.4375 Z M62.75 51.4375 C63.75 53.4375 63.75 53.4375 63.75 53.4375 Z M-63.25 55.4375 C-62.25 58.4375 -62.25 58.4375 -62.25 58.4375 Z M63.75 56.4375 C64.75 58.4375 64.75 58.4375 64.75 58.4375 Z M-64.25 62.4375 C-64.25 66.3975 -64.25 70.3575 -64.25 74.4375 C-63.92 74.4375 -63.59 74.4375 -63.25 74.4375 C-63.25 70.4775 -63.25 66.5175 -63.25 62.4375 C-63.58 62.4375 -63.91 62.4375 -64.25 62.4375 Z M64.75 62.4375 C64.75 66.3975 64.75 70.3575 64.75 74.4375 C65.08 74.4375 65.41 74.4375 65.75 74.4375 C65.75 70.4775 65.75 66.5175 65.75 62.4375 C65.42 62.4375 65.09 62.4375 64.75 62.4375 Z M-63.25 78.4375 C-62.25 81.4375 -62.25 81.4375 -62.25 81.4375 Z M63.75 78.4375 C64.75 81.4375 64.75 81.4375 64.75 81.4375 Z M-62.25 83.4375 C-61.25 85.4375 -61.25 85.4375 -61.25 85.4375 Z M62.75 83.4375 C63.75 85.4375 63.75 85.4375 63.75 85.4375 Z M-5.25 132.4375 C-5.25 132.7675 -5.25 133.0975 -5.25 133.4375 C-1.29 133.4375 2.67 133.4375 6.75 133.4375 C6.75 133.1075 6.75 132.7775 6.75 132.4375 C2.79 132.4375 -1.17 132.4375 -5.25 132.4375 Z " fill="#FFFFFF" transform="translate(67.25,-0.4375)"/>
<path d="M0 0 C1.32 0 2.64 0 4 0 C4 1.32 4 2.64 4 4 C4.99 4 5.98 4 7 4 C7 2.68 7 1.36 7 0 C8.32 0 9.64 0 11 0 C11 3.96 11 7.92 11 12 C10.01 12 9.02 12 8 12 C7.67 10.35 7.34 8.7 7 7 C6.01 7 5.02 7 4 7 C4 8.65 4 10.3 4 12 C3.01 12 2.02 12 1 12 C1 11.34 1 10.68 1 10 C0.34 10 -0.32 10 -1 10 C-1 10.66 -1 11.32 -1 12 C-3.77100394 13.38550197 -5.9334706 13.1877467 -9 13 C-9.99 12.34 -10.98 11.68 -12 11 C-12.4375 7.5625 -12.4375 7.5625 -12 4 C-10.3125 2 -10.3125 2 -8 1 C-5.25 1.3125 -5.25 1.3125 -3 2 C-3 2.99 -3 3.98 -3 5 C-4.65 5.33 -6.3 5.66 -8 6 C-8 7.32 -8 8.64 -8 10 C-7.05125 9.649375 -6.1025 9.29875 -5.125 8.9375 C-2 8 -2 8 0 9 C0 6.03 0 3.06 0 0 Z " fill="#FFFFFF" transform="translate(61,11)"/>
<path d="M0 0 C4.05281712 1.22527029 7.44360764 2.69880494 11 5 C10.67 5.99 10.34 6.98 10 8 C8.68 7.67 7.36 7.34 6 7 C6 7.99 6 8.98 6 10 C5.01 10.495 5.01 10.495 4 11 C4.99 11.66 5.98 12.32 7 13 C6.67 13.99 6.34 14.98 6 16 C1.94718288 14.77472971 -1.44360764 13.30119506 -5 11 C-4 8 -4 8 -1.9375 6.8125 C-1.298125 6.544375 -0.65875 6.27625 0 6 C-0.185625 5.38125 -0.37125 4.7625 -0.5625 4.125 C-1 2 -1 2 0 0 Z " fill="#FFFFFF" transform="translate(20,36)"/>
<path d="M0 0 C6 7.4 6 7.4 6 11 C3.69 10.67 1.38 10.34 -1 10 C-0.67 11.32 -0.34 12.64 0 14 C-1.32 14 -2.64 14 -4 14 C-7.22265625 8.82421875 -7.22265625 8.82421875 -8 7 C-7.67 6.01 -7.34 5.02 -7 4 C-4.03 4.495 -4.03 4.495 -1 5 C-1.33 3.68 -1.66 2.36 -2 1 C-1.34 0.67 -0.68 0.34 0 0 Z " fill="#FFFFFF" transform="translate(43,16)"/>
<path d="M0 0 C1.98 1.65 3.96 3.3 6 5 C5.67 5.99 5.34 6.98 5 8 C1.9375 9.1875 1.9375 9.1875 -1 10 C-1 10.99 -1 11.98 -1 13 C-3.88575819 12.60196439 -4.82189513 12.20990931 -6.75 9.9375 C-7.1625 9.298125 -7.575 8.65875 -8 8 C-6.49776416 3.79373966 -3.71449966 2.26099979 0 0 Z M0 4 C0.33 4.99 0.66 5.98 1 7 C1 6.01 1 5.02 1 4 C0.67 4 0.34 4 0 4 Z M-4 7 C-3.34 7.66 -2.68 8.32 -2 9 C-2 8.34 -2 7.68 -2 7 C-2.66 7 -3.32 7 -4 7 Z " fill="#FFFFFF" transform="translate(109,29)"/>
<path d="M0 0 C1.57259584 2.28026397 2.08274284 3.42080011 1.6875 6.1875 C1 8 1 8 0 9 C-1.66617115 9.04063832 -3.33388095 9.042721 -5 9 C-5.33 9.99 -5.66 10.98 -6 12 C-6.66 11.67 -7.32 11.34 -8 11 C-7.67 9.35 -7.34 7.7 -7 6 C-7.99 6 -8.98 6 -10 6 C-9.875 4.1875 -9.875 4.1875 -9 2 C-3.81203008 -1.27067669 -3.81203008 -1.27067669 0 0 Z M-3 3 C-3 3.99 -3 4.98 -3 6 C-2.34 5.67 -1.68 5.34 -1 5 C-1.66 4.34 -2.32 3.68 -3 3 Z " fill="#FFFFFF" transform="translate(118,40)"/>
<path d="M0 0 C4.83573624 0.46054631 8.64026 1.9945196 13 4 C12.67 4.66 12.34 5.32 12 6 C10.35 6 8.7 6 7 6 C6.34 8.31 5.68 10.62 5 13 C2.32098068 10.68118495 1.33795597 8.68185532 0.3125 5.3125 C0.06113281 4.50425781 -0.19023437 3.69601563 -0.44921875 2.86328125 C-0.63097656 2.24839844 -0.81273438 1.63351563 -1 1 C-0.67 0.67 -0.34 0.34 0 0 Z " fill="#FFFFFF" transform="translate(27,28)"/>
<path d="M0 0 C4.455 0.99 4.455 0.99 9 2 C7.75 4.9375 7.75 4.9375 6 8 C3.8125 8.875 3.8125 8.875 2 9 C3.65 9 5.3 9 7 9 C7 9.99 7 10.98 7 12 C4.03 11.67 1.06 11.34 -2 11 C-1.125 3.375 -1.125 3.375 0 0 Z " fill="#FFFFFF" transform="translate(76,12)"/>
<path d="M0 0 C0.94875 0.350625 1.8975 0.70125 2.875 1.0625 C2.875 2.0525 2.875 3.0425 2.875 4.0625 C1.885 4.0625 0.895 4.0625 -0.125 4.0625 C0.535 5.3825 1.195 6.7025 1.875 8.0625 C1.215 8.7225 0.555 9.3825 -0.125 10.0625 C-3.75 9.6875 -3.75 9.6875 -7.125 9.0625 C-7.455 7.7425 -7.785 6.4225 -8.125 5.0625 C-7.465 4.7325 -6.805 4.4025 -6.125 4.0625 C-5.96 3.4025 -5.795 2.7425 -5.625 2.0625 C-5.46 1.4025 -5.295 0.7425 -5.125 0.0625 C-3.125 -0.9375 -3.125 -0.9375 0 0 Z " fill="#FFFFFF" transform="translate(92.125,16.9375)"/>
<path d="M0 0 C0.928125 0.20625 1.85625 0.4125 2.8125 0.625 C2.8125 1.615 2.8125 2.605 2.8125 3.625 C1.1625 3.625 -0.4875 3.625 -2.1875 3.625 C-2.5175 5.275 -2.8475 6.925 -3.1875 8.625 C-1.2075 8.295 0.7725 7.965 2.8125 7.625 C2.8125 8.615 2.8125 9.605 2.8125 10.625 C1.8125 11.625 1.8125 11.625 -1.0625 11.875 C-4.1875 11.625 -4.1875 11.625 -6.125 10.5625 C-7.85415678 7.40933176 -7.0465699 4.99991745 -6.1875 1.625 C-3.1875 -0.375 -3.1875 -0.375 0 0 Z " fill="#FFFFFF" transform="translate(57.1875,113.375)"/>
<path d="M0 0 C1.32 0 2.64 0 4 0 C4.66 0.99 5.32 1.98 6 3 C6.66 2.01 7.32 1.02 8 0 C9.32 0.33 10.64 0.66 12 1 C11.360625 1.886875 10.72125 2.77375 10.0625 3.6875 C8.19170243 6.69211428 7.40576034 8.5510371 7 12 C6.01 12 5.02 12 4 12 C3.566875 10.4221875 3.566875 10.4221875 3.125 8.8125 C2.22774807 5.77181289 1.23576581 2.91287656 0 0 Z " fill="#FFFFFF" transform="translate(77,113)"/>
<path d="M0 0 C1.68076231 0.63028587 3.34795544 1.29788106 5 2 C7.32357511 2.18490007 7.32357511 2.18490007 10 0 C11.0625 2.375 11.0625 2.375 12 5 C11.67 5.66 11.34 6.32 11 7 C9.948125 6.814375 8.89625 6.62875 7.8125 6.4375 C4.42880118 6.04920669 2.23574112 6.11752515 -1 7 C-2 4 -2 4 -2 1 C-1.34 0.67 -0.68 0.34 0 0 Z " fill="#FFFFFF" transform="translate(115,65)"/>
<path d="M0 0 C5.75 3.625 5.75 3.625 8 7 C7.34 7.66 6.68 8.32 6 9 C5.01 8.67 4.02 8.34 3 8 C1.02 10.97 1.02 10.97 -1 14 C-1.99 13.67 -2.98 13.34 -4 13 C-2.87548273 10.0280615 -1.77706209 7.66559313 0 5 C-0.39938767 2.90178785 -0.39938767 2.90178785 -1 1 C-0.67 0.67 -0.34 0.34 0 0 Z " fill="#FFFFFF" transform="translate(99,19)"/>
<path d="M0 0 C0.99 0.33 1.98 0.66 3 1 C3 2.98 3 4.96 3 7 C0.69 7 -1.62 7 -4 7 C-4 5.68 -4 4.36 -4 3 C-4.66 3 -5.32 3 -6 3 C-6 2.34 -6 1.68 -6 1 C-4 0 -4 0 0 0 Z " fill="#FFFFFF" transform="translate(18,65)"/>
<path d="M0 0 C0.66 0 1.32 0 2 0 C2 3.96 2 7.92 2 12 C1.34 12 0.68 12 0 12 C0 8.04 0 4.08 0 0 Z " fill="#FFFFFF" transform="translate(63,113)"/>
</svg>
