<?xml version="1.0" encoding="UTF-8"?>
<svg version="1.1" xmlns="http://www.w3.org/2000/svg" width="185" height="75">
<path d="M0 0 C1.65 0 3.3 0 5 0 C5 24.75 5 49.5 5 75 C3.35 75 1.7 75 0 75 C0 50.25 0 25.5 0 0 Z " fill="#FFFFFF" transform="translate(84,0)"/>
<path d="M0 0 C2.0625 -0.061875 4.125 -0.12375 6.25 -0.1875 C7.99023438 -0.23970703 7.99023438 -0.23970703 9.765625 -0.29296875 C13.22268407 0.02017066 14.51565563 0.65709108 17 3 C16.690625 4.670625 16.690625 4.670625 16.375 6.375 C16.25125 7.57125 16.1275 8.7675 16 10 C16.66 10.66 17.32 11.32 18 12 C18.4375 15.4375 18.4375 15.4375 18 19 C12.56355977 23.42594948 6.67110228 22.20215461 0 22 C0 14.74 0 7.48 0 0 Z M5 5 C5 5.99 5 6.98 5 8 C6.98 8 8.96 8 11 8 C11 7.01 11 6.02 11 5 C9.02 5 7.04 5 5 5 Z M5 13 C5 14.32 5 15.64 5 17 C7.31 17 9.62 17 12 17 C12 15.68 12 14.36 12 13 C9.69 13 7.38 13 5 13 Z " fill="#FFFFFF" transform="translate(97,12)"/>
<path d="M0 0 C13.33333333 -0.49382716 13.33333333 -0.49382716 16.42578125 1.796875 C18.7024252 4.98304668 18.47778994 7.17768049 18 11 C16.5 13.4375 16.5 13.4375 15 15 C16.32 17.31 17.64 19.62 19 22 C15.75 22.375 15.75 22.375 12 22 C9.6875 19.0625 9.6875 19.0625 8 16 C7.34 15.67 6.68 15.34 6 15 C6 17.31 6 19.62 6 22 C4.02 22 2.04 22 0 22 C0 14.74 0 7.48 0 0 Z M6 5 C6 6.65 6 8.3 6 10 C7.98 10 9.96 10 12 10 C12.33 9.01 12.66 8.02 13 7 C11.16116119 4.71271266 11.16116119 4.71271266 8.375 4.875 C7.199375 4.936875 7.199375 4.936875 6 5 Z " fill="#FFFFFF" transform="translate(60,12)"/>
<path d="M0 0 C5.61 0 11.22 0 17 0 C17 1.65 17 3.3 17 5 C13.04 5 9.08 5 5 5 C5 5.99 5 6.98 5 8 C8.3 8 11.6 8 15 8 C15 9.65 15 11.3 15 13 C11.7 13 8.4 13 5 13 C5 14.32 5 15.64 5 17 C8.96 17 12.92 17 17 17 C17 18.65 17 20.3 17 22 C11.39 22 5.78 22 0 22 C0 14.74 0 7.48 0 0 Z " fill="#FFFFFF" transform="translate(120,12)"/>
<path d="M0 0 C5.28 0 10.56 0 16 0 C16 1.65 16 3.3 16 5 C12.37 5 8.74 5 5 5 C5 6.32 5 7.64 5 9 C8.3 9 11.6 9 15 9 C15 10.65 15 12.3 15 14 C11.7 14 8.4 14 5 14 C5 14.99 5 15.98 5 17 C8.96 17 12.92 17 17 17 C17 18.65 17 20.3 17 22 C11.39 22 5.78 22 0 22 C0 14.74 0 7.48 0 0 Z " fill="#FFFFFF" transform="translate(20,41)"/>
<path d="M0 0 C1.98 0 3.96 0 6 0 C7.34208754 3.10045423 8.67213754 6.20592989 10 9.3125 C10.3815625 10.19357422 10.763125 11.07464844 11.15625 11.98242188 C11.5171875 12.82998047 11.878125 13.67753906 12.25 14.55078125 C12.58515625 15.33106689 12.9203125 16.11135254 13.265625 16.9152832 C14 19 14 19 14 22 C12.35 22 10.7 22 9 22 C8.34 20.35 7.68 18.7 7 17 C2.94914321 17.24631557 2.94914321 17.24631557 -1 18 C-2.5899433 19.92064793 -2.5899433 19.92064793 -3 22 C-4.98 22 -6.96 22 -9 22 C-7.68890091 18.7077736 -6.37588318 15.41631579 -5.0625 12.125 C-4.50272461 10.71927734 -4.50272461 10.71927734 -3.93164062 9.28515625 C-3.39506836 7.94130859 -3.39506836 7.94130859 -2.84765625 6.5703125 C-2.51773682 5.74289551 -2.18781738 4.91547852 -1.84790039 4.06298828 C-1 2 -1 2 0 0 Z M2 8 C1.67 9.32 1.34 10.64 1 12 C2.32 11.67 3.64 11.34 5 11 C4.01 10.01 3.02 9.02 2 8 Z " fill="#FFFFFF" transform="translate(171,12)"/>
<path d="M0 0 C1.98 0 3.96 0 6 0 C7.34208754 3.10045423 8.67213754 6.20592989 10 9.3125 C10.3815625 10.19357422 10.763125 11.07464844 11.15625 11.98242188 C11.5171875 12.82998047 11.878125 13.67753906 12.25 14.55078125 C12.58515625 15.33106689 12.9203125 16.11135254 13.265625 16.9152832 C14 19 14 19 14 22 C12.35 22 10.7 22 9 22 C8.34 20.35 7.68 18.7 7 17 C2.94914321 17.24631557 2.94914321 17.24631557 -1 18 C-2.5899433 19.92064793 -2.5899433 19.92064793 -3 22 C-4.65 22 -6.3 22 -8 22 C-7.40644629 16.69981613 -5.62627368 12.41863107 -3.4375 7.625 C-3.10814453 6.88894531 -2.77878906 6.15289062 -2.43945312 5.39453125 C-1.63252195 3.59355443 -0.8171174 1.79637819 0 0 Z M2 8 C1.67 9.32 1.34 10.64 1 12 C2.32 11.67 3.64 11.34 5 11 C4.01 10.01 3.02 9.02 2 8 Z " fill="#FFFFFF" transform="translate(125,41)"/>
<path d="M0 0 C2.5 1 2.5 1 4 2 C3.34 3.65 2.68 5.3 2 7 C-0.64 6.67 -3.28 6.34 -6 6 C-3.07482923 8.05742957 -3.07482923 8.05742957 0.0625 9.4375 C3 11 3 11 5 14 C4.7931605 16.75786 4.4365915 18.44191056 2.72265625 20.6328125 C-0.00214674 22.79535456 -2.41032891 22.40332639 -5.76953125 22.3046875 C-8.7039426 21.90383971 -10.67480709 20.80014935 -13 19 C-12.34 17.68 -11.68 16.36 -11 15 C-7.7 15.66 -4.4 16.32 -1 17 C-2.34715033 14.30569934 -3.75290492 14.08067406 -6.5 12.9375 C-10.91280654 11.08719346 -10.91280654 11.08719346 -12 10 C-12.38721999 6.51502007 -12.39387281 4.62363194 -10.5 1.625 C-6.99309024 -0.65449134 -4.07498472 -0.5845265 0 0 Z " fill="#FFFFFF" transform="translate(53,41)"/>
<path d="M0 0 C1.28583984 0.00580078 1.28583984 0.00580078 2.59765625 0.01171875 C4.9375 0.3125 4.9375 0.3125 7.9375 2.3125 C7.2775 3.9625 6.6175 5.6125 5.9375 7.3125 C4.99777344 7.16941406 4.99777344 7.16941406 4.0390625 7.0234375 C3.22179687 6.91257812 2.40453125 6.80171875 1.5625 6.6875 C0.75039062 6.57148438 -0.06171875 6.45546875 -0.8984375 6.3359375 C-1.61257812 6.32820313 -2.32671875 6.32046875 -3.0625 6.3125 C-5.37813087 8.19750271 -5.37813087 8.19750271 -5.3125 11.3125 C-5.37813087 14.42749729 -5.37813087 14.42749729 -3.0625 16.3125 C-0.84121445 16.33558597 -0.84121445 16.33558597 1.5625 15.9375 C2.37976563 15.82664062 3.19703125 15.71578125 4.0390625 15.6015625 C4.66554687 15.50617187 5.29203125 15.41078125 5.9375 15.3125 C6.5975 16.6325 7.2575 17.9525 7.9375 19.3125 C5.35956774 22.00251628 3.16983669 22.61783765 -0.4375 22.8125 C-3.67138828 22.67908877 -5.8933001 22.23828205 -8.5625 20.375 C-11.78643818 16.42567573 -12.46593488 13.35543604 -12.0625 8.3125 C-9.72081208 2.64315031 -6.1410291 -0.12041234 0 0 Z " fill="#FFFFFF" transform="translate(152.0625,11.6875)"/>
<path d="M0 0 C1.98 0 3.96 0 6 0 C7.65 3.96 9.3 7.92 11 12 C12.65 8.04 14.3 4.08 16 0 C17.65 0 19.3 0 21 0 C20.37910554 4.99043921 18.90498961 9.20727748 17 13.8125 C16.72671875 14.49248047 16.4534375 15.17246094 16.171875 15.87304688 C14.14553571 20.85446429 14.14553571 20.85446429 13 22 C11.33382885 22.04063832 9.66611905 22.042721 8 22 C0 4.79841897 0 4.79841897 0 0 Z " fill="#FFFFFF" transform="translate(96,41)"/>
<path d="M0 0 C5.28 0 10.56 0 16 0 C16 1.65 16 3.3 16 5 C12.37 5 8.74 5 5 5 C5 6.32 5 7.64 5 9 C8.3 9 11.6 9 15 9 C15 10.65 15 12.3 15 14 C11.7 14 8.4 14 5 14 C5 16.64 5 19.28 5 22 C3.35 22 1.7 22 0 22 C0 14.74 0 7.48 0 0 Z " fill="#FFFFFF" transform="translate(0,41)"/>
<path d="M0 0 C5.94 0 11.88 0 18 0 C18 1.65 18 3.3 18 5 C16.02 5 14.04 5 12 5 C12 10.61 12 16.22 12 22 C10.02 22 8.04 22 6 22 C6 16.39 6 10.78 6 5 C4.02 5 2.04 5 0 5 C0 3.35 0 1.7 0 0 Z " fill="#FFFFFF" transform="translate(60,41)"/>
<path d="M0 0 C1.98 0 3.96 0 6 0 C6 5.61 6 11.22 6 17 C9.3 17 12.6 17 16 17 C16 18.65 16 20.3 16 22 C10.72 22 5.44 22 0 22 C0 14.74 0 7.48 0 0 Z " fill="#FFFFFF" transform="translate(142,41)"/>
<path d="M0 0 C5.94 0 11.88 0 18 0 C18 1.65 18 3.3 18 5 C15.69 5 13.38 5 11 5 C11 10.61 11 16.22 11 22 C9.35 22 7.7 22 6 22 C6 16.39 6 10.78 6 5 C4.02 5 2.04 5 0 5 C0 3.35 0 1.7 0 0 Z " fill="#FFFFFF" transform="translate(39,12)"/>
<path d="M0 0 C1.65 0 3.3 0 5 0 C5 0.99 5 1.98 5 3 C3.35 3 1.7 3 0 3 C0 2.01 0 1.02 0 0 Z " fill="#FEFEFE" transform="translate(160,59)"/>
</svg>
