<?xml version="1.0" encoding="UTF-8"?>
<svg version="1.1" xmlns="http://www.w3.org/2000/svg" width="164" height="72">
<path d="M0 0 C15.84 0 31.68 0 48 0 C48 15.84 48 31.68 48 48 C32.16 48 16.32 48 0 48 C0 32.16 0 16.32 0 0 Z M16 17 C15.90090698 19.33160055 15.87029496 21.66629942 15.875 24 C15.87242188 25.27875 15.86984375 26.5575 15.8671875 27.875 C15.64139107 30.86687244 15.64139107 30.86687244 17 32 C19.33160055 32.09909302 21.66629942 32.12970504 24 32.125 C25.27875 32.12757812 26.5575 32.13015625 27.875 32.1328125 C30.86687244 32.35860893 30.86687244 32.35860893 32 31 C32.09909302 28.66839945 32.12970504 26.33370058 32.125 24 C32.12757812 22.72125 32.13015625 21.4425 32.1328125 20.125 C32.35860893 17.13312756 32.35860893 17.13312756 31 16 C28.66839945 15.90090698 26.33370058 15.87029496 24 15.875 C22.72125 15.87242188 21.4425 15.86984375 20.125 15.8671875 C17.13312756 15.64139107 17.13312756 15.64139107 16 17 Z " fill="#FFFFFF" transform="translate(0,12)"/>
<path d="M0 0 C5.61 0 11.22 0 17 0 C17 5.28 17 10.56 17 16 C21.95 16 26.9 16 32 16 C32 10.72 32 5.44 32 0 C37.61 0 43.22 0 49 0 C49 5.28 49 10.56 49 16 C43.72 16 38.44 16 33 16 C33 21.28 33 26.56 33 32 C34.98 31.67 36.96 31.34 39 31 C42.34124918 30.88235038 45.65486549 30.95479548 49 31 C49 36.61 49 42.22 49 48 C43.39 48 37.78 48 32 48 C32 42.72 32 37.44 32 32 C27.05 32 22.1 32 17 32 C17 37.28 17 42.56 17 48 C11.39 48 5.78 48 0 48 C0 42.72 0 37.44 0 32 C5.28 32 10.56 32 16 32 C16 26.72 16 21.44 16 16 C10.72 16 5.44 16 0 16 C0 10.72 0 5.44 0 0 Z " fill="#FFFFFF" transform="translate(111,12)"/>
<path d="M0 0 C5.28 0 10.56 0 16 0 C16 5.28 16 10.56 16 16 C21.28 16 26.56 16 32 16 C32 21.28 32 26.56 32 32 C26.72 32 21.44 32 16 32 C16 37.28 16 42.56 16 48 C10.72 48 5.44 48 0 48 C0 32.16 0 16.32 0 0 Z " fill="#FFFFFF" transform="translate(56,12)"/>
<path d="M0 0 C5.28 0 10.56 0 16 0 C16 5.28 16 10.56 16 16 C10.72 16 5.44 16 0 16 C0 10.72 0 5.44 0 0 Z " fill="#FFFFFF" transform="translate(88,44)"/>
<path d="M0 0 C5.28 0 10.56 0 16 0 C16 5.28 16 10.56 16 16 C10.72 16 5.44 16 0 16 C0 10.72 0 5.44 0 0 Z " fill="#FFFFFF" transform="translate(88,12)"/>
</svg>
